<?xml version="1.0" encoding="utf-8"?>
<!-- Generator: Adobe Illustrator 19.0.0, SVG Export Plug-In . SVG Version: 6.00 Build 0)  -->
<svg version="1.1" id="Layer_1" xmlns="http://www.w3.org/2000/svg" xmlns:xlink="http://www.w3.org/1999/xlink" x="0px" y="0px"
	 viewBox="0 0 250 50" style="enable-background:new 0 0 250 50;" xml:space="preserve">
<style type="text/css">
	.st0{fill:#2086B3;}
	.st1{fill:#1C1B17;}
</style>
<path id="XMLID_21_" class="st0" d="M64.3,25.1L64.3,25.1c0-2,0.6-3.9,1.8-5.5c1.1-1.5,2.6-2.6,4.6-3.2c0.8-0.2,1.2-0.6,1.2-1.3
	c0-1-0.4-1.4-1.2-1.2c-2.5,0.5-4.6,1.8-6.4,3.9c-1.7,2-2.5,4.5-2.5,7.1V25L64.3,25.1L64.3,25.1z M98.1,25.1L98.1,25.1
	c0-3.2-1.1-5.9-3.3-8.1c-2.2-2.3-4.9-3.5-8.1-3.5c-3,0-5.8,1.1-8,3.2c-0.3,0.3-0.5,0.4-0.6,0.4s-0.3-0.1-0.4-0.4V3.3
	c0-0.9-0.5-1.3-1.2-1.3c-0.8,0-1.2,0.4-1.3,1.3v21.8h2.5V25c0-2.4,0.9-4.5,2.6-6.3c1.8-1.7,3.9-2.6,6.4-2.6s4.6,0.9,6.4,2.6
	c1.7,1.7,2.5,3.9,2.5,6.3v0.1H98.1z M102.9,23.8c0.7,0,1.1-0.4,1.3-1.2c0.5-1.9,1.6-3.5,3.2-4.6c1.6-1.2,3.5-1.8,5.4-1.8
	c2.5,0,4.6,0.9,6.4,2.6c1.7,1.7,2.5,3.8,2.5,6.3V25h2.5l0,0c0-3.2-1.1-5.9-3.3-8.1c-2.2-2.2-4.9-3.3-8.1-3.3c-2.6,0-5.1,0.9-7.1,2.5
	c-2.1,1.7-3.5,3.9-3.9,6.5C101.5,23.3,101.9,23.8,102.9,23.8z M130.2,25.1c0-2.4,0.9-4.5,2.6-6.2c1.7-1.7,3.8-2.5,6.3-2.5
	c1.9,0,3.8,0.6,5.4,1.7c1.5,1.2,2.6,2.7,3.2,4.6c0,0.8,0.4,1.3,1.2,1.3c1.1,0,1.5-0.5,1.3-1.3c-0.6-2.6-2-4.8-4-6.5
	c-2-1.6-4.5-2.4-7.1-2.4c-3.2,0-5.9,1.1-8.1,3.3c-2.2,2.1-3.2,4.9-3.3,7.9L130.2,25.1L130.2,25.1z M153.9,14.8V25h4.6l-0.1-0.1
	l9.1-9.2c0.3-0.2,0.4-0.5,0.4-0.9c0-0.3-0.1-0.6-0.4-0.9c-0.2-0.3-0.5-0.4-0.8-0.4c-0.4,0-0.7,0.1-1,0.4l-9.1,9.2v-8.3
	c-0.1-0.9-0.5-1.3-1.3-1.3S153.9,13.9,153.9,14.8z M171,14.8V25h2.5v-6.1c0-0.3,0.1-0.5,0.3-0.5c0.1,0,0.4,0.1,0.7,0.5l6.2,6.2h3.8
	L173.2,14c-0.3-0.3-0.6-0.4-1-0.4C171.4,13.5,171,14.1,171,14.8z M194,25.1V14.8c-0.1-0.9-0.5-1.3-1.3-1.3s-1.3,0.4-1.3,1.3V25
	L194,25.1L194,25.1z M204.3,13.5V16c0.8-0.1,1.2-0.5,1.2-1.3C205.5,14.1,205.1,13.6,204.3,13.5z M205.6,25.1L205.6,25.1
	c0-0.9-0.5-1.3-1.4-1.3c-1,0-1.9-0.4-2.7-1.2c-0.7-0.7-1.1-1.6-1.1-2.6c0-1.1,0.4-2,1.1-2.7c0.8-0.8,1.7-1.1,2.7-1.1h0.1v-2.6h-0.1
	c-1.7,0-3.2,0.6-4.5,1.9c-1.2,1.2-1.8,2.7-1.8,4.5c0,2,0.8,3.8,2.6,5.1l-0.2,0.1C200.3,25.1,205.6,25.1,205.6,25.1z M209.1,14.8V25
	h4.6l-0.1-0.1l9.1-9.2c0.3-0.2,0.4-0.5,0.4-0.9c0-0.3-0.1-0.6-0.4-0.9c-0.3-0.3-0.6-0.4-0.9-0.4s-0.6,0.1-0.9,0.4l-9.1,9.2v-8.3
	c-0.1-0.9-0.5-1.3-1.4-1.3C209.5,13.5,209.1,13.9,209.1,14.8z M238.7,25.1v-7.3c0-1.1,0.6-1.6,1.9-1.6h6.7c0.9-0.1,1.3-0.5,1.3-1.3
	s-0.4-1.2-1.3-1.3h-20.1c-0.9,0.1-1.3,0.5-1.3,1.3s0.4,1.2,1.3,1.3h7c1.3,0.2,1.9,0.7,1.9,1.7V25L238.7,25.1L238.7,25.1z"/>
<path id="XMLID_8_" class="st1" d="M64.3,25.3V25h-2.5v0.1c0,2-0.6,3.9-1.8,5.4c-1.2,1.6-2.7,2.7-4.6,3.2c-0.9,0.1-1.3,0.6-1.3,1.3
	c0,0.4,0.1,0.7,0.4,1c0.2,0.2,0.5,0.3,0.9,0.2c2.5-0.5,4.6-1.8,6.4-3.9C63.5,30.3,64.3,28,64.3,25.3z M98.1,35.1v-10h-2.5v10
	c0.1,0.8,0.5,1.2,1.2,1.2C97.6,36.3,98,35.9,98.1,35.1z M75.1,25.1v10c0.1,0.8,0.5,1.2,1.3,1.2c0.7,0,1.2-0.4,1.2-1.2v-10
	C77.6,25.1,75.1,25.1,75.1,25.1z M121.6,25.1c0,2.4-0.9,4.5-2.5,6.2c-1.8,1.7-3.9,2.6-6.4,2.6c-1.9,0-3.8-0.6-5.3-1.8
	c-1.6-1.2-2.7-2.7-3.3-4.6c0-0.8-0.4-1.2-1.2-1.2c-1,0-1.4,0.4-1.2,1.2c0.6,2.6,1.9,4.9,3.9,6.5s4.5,2.4,7.1,2.4
	c3.2,0,5.9-1.1,8.1-3.3c2.2-2.1,3.3-4.8,3.3-7.9C124.1,25.1,121.6,25.1,121.6,25.1z M131.5,33.7c0.1,0.2,0.3,0.3,0.4,0.4L131.5,33.7
	z M130.2,46.9V34.1c0-0.6,0.2-0.8,0.4-0.8s0.5,0.1,0.9,0.4l0.4,0.4c2.1,1.7,4.6,2.5,7.2,2.5c2.6,0,5.1-0.8,7.2-2.5
	c2.1-1.7,3.5-3.9,3.9-6.4c0.1-0.4,0-0.7-0.3-0.9c-0.3-0.3-0.6-0.4-1-0.4c-0.5,0-0.9,0.2-1.1,0.6c-0.2,0.5-0.3,0.7-0.2,0.7
	c-0.6,1.8-1.6,3.5-3.2,4.6c-1.6,1.2-3.5,1.8-5.4,1.8c-2.5,0-4.6-0.9-6.3-2.6c-1.8-1.7-2.6-3.9-2.6-6.3v-0.1h-2.5v0.2v21.5
	c0.1,0.9,0.5,1.3,1.2,1.3C129.7,48.2,130.1,47.7,130.2,46.9z M153.9,25.1v10c0,0.8,0.5,1.2,1.3,1.2s1.2-0.4,1.3-1.2v-8.3l9.1,9.1
	c0.3,0.3,0.6,0.4,1,0.4c0.3,0,0.6-0.1,0.8-0.4c0.3-0.2,0.4-0.5,0.4-0.8c0-0.4-0.1-0.7-0.4-1l-9-9C158.4,25.1,153.9,25.1,153.9,25.1z
	 M171,25.1v10c0,0.8,0.4,1.2,1.2,1.2s1.3-0.4,1.3-1.2v-10C173.5,25.1,171,25.1,171,25.1z M180.7,25.1l10.9,10.8
	c0.3,0.3,0.6,0.4,0.9,0.4c0.1,0,0.3,0,0.4,0c0.6-0.1,0.9-0.6,1-1.3v-9.9h-2.6v6.2c0,0.3,0,0.4-0.2,0.4c-0.1,0-0.3-0.1-0.5-0.4
	l-6.2-6.2C184.4,25.1,180.7,25.1,180.7,25.1z M204.2,33.9c-1,0-1.9-0.4-2.7-1.1c-0.7-0.8-1.1-1.6-1.1-2.7c0-1,0.4-1.9,1.2-2.7
	c0.7-0.7,1.6-1.1,2.7-1.1c0.8,0,1.2-0.4,1.3-1.1h-5.3c-1.6,1.3-2.4,2.9-2.4,4.9c0,1.7,0.6,3.2,1.8,4.5c1.2,1.2,2.7,1.8,4.5,1.8h0.1
	c0.8,0,1.2-0.4,1.2-1.2C205.6,34.4,205.1,33.9,204.2,33.9z M209.1,25.1v10c0,0.8,0.4,1.2,1.2,1.2c0.9,0,1.3-0.4,1.4-1.2v-8.3
	l9.1,9.1c0.3,0.3,0.6,0.4,0.9,0.4s0.6-0.1,0.9-0.4c0.3-0.2,0.4-0.5,0.4-0.8c0-0.4-0.1-0.7-0.4-1l-9-9
	C213.6,25.1,209.1,25.1,209.1,25.1z M236.1,35.1c0,0.8,0.5,1.2,1.3,1.2s1.2-0.4,1.3-1.2v-10h-2.6V35.1z"/>
<path id="XMLID_40_" class="st0" d="M24.4,1.8c-12.7,0-23,10.3-23,23.1S11.7,48,24.5,48s23.1-10.3,23.1-23.1S37.2,1.8,24.4,1.8z
	 M36.3,12.7C33.1,9.8,29,8,24.5,8C15.8,8,8.6,14.6,7.7,23h9.4v-9.6h3.5V36h-3.5v-9.6h-13c0-0.5-0.1-1-0.1-1.5
	C4,13.6,13.2,4.4,24.4,4.4c5.5,0,10.4,2.2,14.1,5.7L36.3,12.7z"/>
<path id="XMLID_5_" class="st0" d="M12.5,36.8c3,3.2,7.3,4.9,12,4.9c8.9,0,16.2-6.9,16.9-15.6H27.1l1.4,1.8l5.6,8h-4.5l-8-11.4
	l8-11.3h4.6l-6.5,9.3l-0.1,0.2h13.7h1.2l0,0h2.3c0.1,0.6,0.1,1.3,0.1,2c0,11.3-9.1,20.5-20.5,20.5c-5.8,0-10.9-2.4-14.7-6.3
	L12.5,36.8z"/>
<path id="XMLID_2_" class="st1" d="M12.5,36.8c3,3.2,7.3,4.9,12,4.9c8.9,0,16.2-6.9,16.9-15.6H27.1l1.4,1.8l5.6,8h-4.5l-8-11.4
	l8-11.3h4.6l-6.5,9.3l-0.1,0.2h13.7h1.2l0,0h2.3c0.1,0.6,0.1,1.3,0.1,2c0,11.3-9.1,20.5-20.5,20.5c-5.8,0-10.9-2.4-14.7-6.3
	L12.5,36.8z"/>
</svg>
